<svg xmlns="http://www.w3.org/2000/svg" viewBox="0 0 100 32" fill="currentColor">
  <!-- Sedan lateral: capô, para-brisa, teto, porta-malas -->
  <path d="M4 21v-1c0-1 1-2 2-2h6l2-3h14l1.5-2.5h22L54 15h14l2 3h6c1 0 2 1 2 2v1h1.5l.5 1H2l.5-1H4zm2-4v.8h9.2v-.8l-1-1.2c-.2-.2-.3-.5-.3-.8V14H7v1.8c0 .3-.1.6-.3.8L6 17zm30 0v.8h9.2v-.8l-1-1.2c-.2-.2-.3-.5-.3-.8V14H37v1.8c0 .3-.1.6-.3.8L36 17z"/>
  <rect x="24" y="11" width="32" height="4.5" rx="0.5" opacity="0.45"/>
  <circle cx="18" cy="26" r="4.2" fill="#0f172a"/>
  <circle cx="82" cy="26" r="4.2" fill="#0f172a"/>
</svg>
