<svg xmlns="http://www.w3.org/2000/svg" viewBox="0 0 100 32" fill="currentColor">
  <!-- Esportivo: capo longo, teto baixo -->
  <path d="M2 21v-.8c0-1.2 1-2.2 2.2-2.2h7l2.2-3.2h12l1.8-2.2h24l1.8 2.2h12l2.2 3.2h7c1.2 0 2.2 1 2.2 2.2V21H95l.6 1H2l.6-1H2zm2-5v.6h11v-.6l-1.2-1.4c-.25-.25-.4-.6-.4-1v-1.4H4.2v1.4c0 .4-.15.75-.4 1L4 16zm32 0v.6h11v-.6l-1.2-1.4c-.25-.25-.4-.6-.4-1v-1.4H36.2v1.4c0 .4-.15.75-.4 1L36 16z"/>
  <rect x="28" y="9" width="44" height="3.5" rx="0.5" opacity="0.4"/>
  <circle cx="16" cy="26" r="4" fill="#0f172a"/>
  <circle cx="84" cy="26" r="4" fill="#0f172a"/>
</svg>
